REM DIRINDEX 1\2\4\18,1\2\4\19,1\2\5\20,1\2\5\21,1\2\6\22,1\2\7\23,1\2\8\24,1\2\8\25,1\2\9\26,1\2\10\27,1\3\11\28,1\3\11\29,1\3\11\30,1\3\11\31,1\3\12\32,1\3\12\33,1\3\12\34,1\3\12\35,1\3\13\36,1\3\13\37,1\3\14\38,1\3\14\39,1\3\15\40,1\3\15\41,1\3\15\42,1\3\16\43,1\3\16\44,1\3\17\45,1\3\17\46
REM DIRNAME folder01,folder02,folder03,folder04,folder05,folder06,folder07,folder08,folder09,folder10,folder11,folder12,folder13,folder14,folder15,folder16,folder17,folder18,folder19,folder20,folder21,folder22,folder23,folder24,folder25,folder26,folder27,folder28,folder29,folder30,folder31,folder32,folder33,folder34,folder35,folder36,folder37,folder38,folder39,folder40,folder41,folder42,folder43,folder44,folder45,folder46
TITLE ""
FILE "02.mp3" MP3
  TRACK 01 AUDIO
    TITLE "0:"
    INDEX 01 00:00:00
  TRACK 02 AUDIO
    TITLE "28:cjc024_3196"
    INDEX 01 00:00:13
  TRACK 03 AUDIO
    TITLE "0:"
    INDEX 01 00:01:24
  TRACK 04 AUDIO
    TITLE "29:cjc024_3197"
    INDEX 01 00:01:64
  TRACK 05 AUDIO
    TITLE "0:"
    INDEX 01 00:04:11
  TRACK 06 AUDIO
    TITLE "30:cjc024_3198"
    INDEX 01 00:04:50
  TRACK 07 AUDIO
    TITLE "0:"
    INDEX 01 00:06:37
  TRACK 08 AUDIO
    TITLE "31:cjc024_3199"
    INDEX 01 00:06:63
  TRACK 09 AUDIO
    TITLE "0:"
    INDEX 01 00:08:50
  TRACK 10 AUDIO
    TITLE "28:cjc024_3200"
    INDEX 01 00:09:51
  TRACK 11 AUDIO
    TITLE "0:"
    INDEX 01 00:10:59
  TRACK 12 AUDIO
    TITLE "29:cjc024_3201"
    INDEX 01 00:11:21
  TRACK 13 AUDIO
    TITLE "0:"
    INDEX 01 00:13:67
  TRACK 14 AUDIO
    TITLE "30:cjc024_3202"
    INDEX 01 00:14:27
  TRACK 15 AUDIO
    TITLE "0:"
    INDEX 01 00:16:14
  TRACK 16 AUDIO
    TITLE "31:cjc024_3203"
    INDEX 01 00:16:40
  TRACK 17 AUDIO
    TITLE "0:"
    INDEX 01 00:18:27
  TRACK 18 AUDIO
    TITLE "28:cjc024_3204"
    INDEX 01 00:19:28
  TRACK 19 AUDIO
    TITLE "0:"
    INDEX 01 00:20:24
  TRACK 20 AUDIO
    TITLE "29:cjc024_3205"
    INDEX 01 00:20:67
  TRACK 21 AUDIO
    TITLE "0:"
    INDEX 01 00:22:36
  TRACK 22 AUDIO
    TITLE "30:cjc024_3206"
    INDEX 01 00:23:03
  TRACK 23 AUDIO
    TITLE "0:"
    INDEX 01 00:24:27
  TRACK 24 AUDIO
    TITLE "31:cjc024_3207"
    INDEX 01 00:24:53
  TRACK 25 AUDIO
    TITLE "0:"
    INDEX 01 00:26:05
  TRACK 26 AUDIO
    TITLE "28:cjc024_3208"
    INDEX 01 00:27:04
  TRACK 27 AUDIO
    TITLE "0:"
    INDEX 01 00:28:39
  TRACK 28 AUDIO
    TITLE "29:cjc024_3209"
    INDEX 01 00:29:01
  TRACK 29 AUDIO
    TITLE "0:"
    INDEX 01 00:32:43
  TRACK 30 AUDIO
    TITLE "30:cjc024_3210"
    INDEX 01 00:33:09
  TRACK 31 AUDIO
    TITLE "0:"
    INDEX 01 00:35:74
  TRACK 32 AUDIO
    TITLE "31:cjc024_3211"
    INDEX 01 00:36:23
  TRACK 33 AUDIO
    TITLE "0:"
    INDEX 01 00:39:13
  TRACK 34 AUDIO
    TITLE "28:cjc024_3212"
    INDEX 01 00:40:13
  TRACK 35 AUDIO
    TITLE "0:"
    INDEX 01 00:41:24
  TRACK 36 AUDIO
    TITLE "29:cjc024_3213"
    INDEX 01 00:41:61
  TRACK 37 AUDIO
    TITLE "0:"
    INDEX 01 00:43:35
  TRACK 38 AUDIO
    TITLE "30:cjc024_3214"
    INDEX 01 00:43:72
  TRACK 39 AUDIO
    TITLE "0:"
    INDEX 01 00:45:59
  TRACK 40 AUDIO
    TITLE "31:cjc024_3215"
    INDEX 01 00:46:09
  TRACK 41 AUDIO
    TITLE "0:"
    INDEX 01 00:47:74
  TRACK 42 AUDIO
    TITLE "28:cjc024_3216"
    INDEX 01 00:48:73
  TRACK 43 AUDIO
    TITLE "0:"
    INDEX 01 00:49:69
  TRACK 44 AUDIO
    TITLE "29:cjc024_3217"
    INDEX 01 00:50:31
  TRACK 45 AUDIO
    TITLE "0:"
    INDEX 01 00:52:06
  TRACK 46 AUDIO
    TITLE "30:cjc024_3218"
    INDEX 01 00:52:43
  TRACK 47 AUDIO
    TITLE "0:"
    INDEX 01 00:54:21
  TRACK 48 AUDIO
    TITLE "31:cjc024_3219"
    INDEX 01 00:54:44
  TRACK 49 AUDIO
    TITLE "0:"
    INDEX 01 00:56:24
  TRACK 50 AUDIO
    TITLE "28:cjc024_3220"
    INDEX 01 00:57:23
  TRACK 51 AUDIO
    TITLE "0:"
    INDEX 01 00:58:26
  TRACK 52 AUDIO
    TITLE "29:cjc024_3221"
    INDEX 01 00:58:66
  TRACK 53 AUDIO
    TITLE "0:"
    INDEX 01 01:00:62
  TRACK 54 AUDIO
    TITLE "30:cjc024_3222"
    INDEX 01 01:01:25
  TRACK 55 AUDIO
    TITLE "0:"
    INDEX 01 01:02:54
  TRACK 56 AUDIO
    TITLE "31:cjc024_3223"
    INDEX 01 01:03:06
  TRACK 57 AUDIO
    TITLE "0:"
    INDEX 01 01:04:33
  TRACK 58 AUDIO
    TITLE "28:cjc024_3224"
    INDEX 01 01:05:36
  TRACK 59 AUDIO
    TITLE "0:"
    INDEX 01 01:06:43
  TRACK 60 AUDIO
    TITLE "29:cjc024_3225"
    INDEX 01 01:07:04
  TRACK 61 AUDIO
    TITLE "0:"
    INDEX 01 01:09:36
  TRACK 62 AUDIO
    TITLE "30:cjc024_3226"
    INDEX 01 01:09:73
  TRACK 63 AUDIO
    TITLE "0:"
    INDEX 01 01:11:52
  TRACK 64 AUDIO
    TITLE "31:cjc024_3227"
    INDEX 01 01:12:03
  TRACK 65 AUDIO
    TITLE "0:"
    INDEX 01 01:13:57
  TRACK 66 AUDIO
    TITLE "28:cjc024_3228"
    INDEX 01 01:14:59
  TRACK 67 AUDIO
    TITLE "0:"
    INDEX 01 01:15:58
  TRACK 68 AUDIO
    TITLE "29:cjc024_3229"
    INDEX 01 01:16:20
  TRACK 69 AUDIO
    TITLE "0:"
    INDEX 01 01:18:27
  TRACK 70 AUDIO
    TITLE "30:cjc024_3230"
    INDEX 01 01:18:64
  TRACK 71 AUDIO
    TITLE "0:"
    INDEX 01 01:20:49
  TRACK 72 AUDIO
    TITLE "31:cjc024_3231"
    INDEX 01 01:21:00
  TRACK 73 AUDIO
    TITLE "0:"
    INDEX 01 01:22:60
  TRACK 74 AUDIO
    TITLE "28:cjc024_3232"
    INDEX 01 01:23:62
  TRACK 75 AUDIO
    TITLE "0:"
    INDEX 01 01:25:04
  TRACK 76 AUDIO
    TITLE "29:cjc024_3233"
    INDEX 01 01:25:43
  TRACK 77 AUDIO
    TITLE "0:"
    INDEX 01 01:26:64
  TRACK 78 AUDIO
    TITLE "30:cjc024_3234"
    INDEX 01 01:27:22
  TRACK 79 AUDIO
    TITLE "0:"
    INDEX 01 01:29:13
  TRACK 80 AUDIO
    TITLE "31:cjc024_3235"
    INDEX 01 01:29:35
  TRACK 81 AUDIO
    TITLE "0:"
    INDEX 01 01:31:26
  TRACK 82 AUDIO
    TITLE "28:cjc024_3236"
    INDEX 01 01:32:25
  TRACK 83 AUDIO
    TITLE "0:"
    INDEX 01 01:33:33
  TRACK 84 AUDIO
    TITLE "29:cjc024_3237"
    INDEX 01 01:33:68
  TRACK 85 AUDIO
    TITLE "0:"
    INDEX 01 01:35:35
  TRACK 86 AUDIO
    TITLE "30:cjc024_3238"
    INDEX 01 01:36:00
  TRACK 87 AUDIO
    TITLE "0:"
    INDEX 01 01:37:42
  TRACK 88 AUDIO
    TITLE "31:cjc024_3239"
    INDEX 01 01:37:68
  TRACK 89 AUDIO
    TITLE "0:"
    INDEX 01 01:39:37
  TRACK 90 AUDIO
    TITLE "28:cjc024_3240"
    INDEX 01 01:40:38
  TRACK 91 AUDIO
    TITLE "0:"
    INDEX 01 01:41:71
  TRACK 92 AUDIO
    TITLE "29:cjc024_3241"
    INDEX 01 01:42:37
  TRACK 93 AUDIO
    TITLE "0:"
    INDEX 01 01:44:23
  TRACK 94 AUDIO
    TITLE "30:cjc024_3242"
    INDEX 01 01:44:60
  TRACK 95 AUDIO
    TITLE "0:"
    INDEX 01 01:46:53
  TRACK 96 AUDIO
    TITLE "31:cjc024_3243"
    INDEX 01 01:47:03
  TRACK 97 AUDIO
    TITLE "0:"
    INDEX 01 01:48:69
  TRACK 98 AUDIO
    TITLE "28:cjc024_3244"
    INDEX 01 01:49:71
  TRACK 99 AUDIO
    TITLE "0:"
    INDEX 01 01:51:03
  TRACK 100 AUDIO
    TITLE "29:cjc024_3245"
    INDEX 01 01:51:40
  TRACK 101 AUDIO
    TITLE "0:"
    INDEX 01 01:53:70
  TRACK 102 AUDIO
    TITLE "30:cjc024_3246"
    INDEX 01 01:54:33
  TRACK 103 AUDIO
    TITLE "0:"
    INDEX 01 01:56:16
  TRACK 104 AUDIO
    TITLE "31:cjc024_3247"
    INDEX 01 01:56:43
  TRACK 105 AUDIO
    TITLE "0:"
    INDEX 01 01:58:29
  TRACK 106 AUDIO
    TITLE "28:cjc024_3248"
    INDEX 01 01:59:28
  TRACK 107 AUDIO
    TITLE "0:"
    INDEX 01 02:00:33
  TRACK 108 AUDIO
    TITLE "29:cjc024_3249"
    INDEX 01 02:00:71
  TRACK 109 AUDIO
    TITLE "0:"
    INDEX 01 02:02:50
  TRACK 110 AUDIO
    TITLE "30:cjc024_3250"
    INDEX 01 02:03:16
  TRACK 111 AUDIO
    TITLE "0:"
    INDEX 01 02:05:01
  TRACK 112 AUDIO
    TITLE "31:cjc024_3251"
    INDEX 01 02:05:27
  TRACK 113 AUDIO
    TITLE "0:"
    INDEX 01 02:07:10
  TRACK 114 AUDIO
    TITLE "28:cjc024_3252"
    INDEX 01 02:08:11
  TRACK 115 AUDIO
    TITLE "0:"
    INDEX 01 02:09:24
  TRACK 116 AUDIO
    TITLE "29:cjc024_3253"
    INDEX 01 02:09:60
  TRACK 117 AUDIO
    TITLE "0:"
    INDEX 01 02:11:51
  TRACK 118 AUDIO
    TITLE "30:cjc024_3254"
    INDEX 01 02:12:15
  TRACK 119 AUDIO
    TITLE "0:"
    INDEX 01 02:13:71
  TRACK 120 AUDIO
    TITLE "31:cjc024_3255"
    INDEX 01 02:14:20
  TRACK 121 AUDIO
    TITLE "0:"
    INDEX 01 02:16:01
  TRACK 122 AUDIO
    TITLE "28:cjc024_3256"
    INDEX 01 02:17:00
  TRACK 123 AUDIO
    TITLE "0:"
    INDEX 01 02:18:31
  TRACK 124 AUDIO
    TITLE "29:cjc024_3257"
    INDEX 01 02:18:70
  TRACK 125 AUDIO
    TITLE "0:"
    INDEX 01 02:21:22
  TRACK 126 AUDIO
    TITLE "30:cjc024_3258"
    INDEX 01 02:21:59
  TRACK 127 AUDIO
    TITLE "0:"
    INDEX 01 02:23:68
  TRACK 128 AUDIO
    TITLE "31:cjc024_3259"
    INDEX 01 02:24:18
  TRACK 129 AUDIO
    TITLE "0:"
    INDEX 01 02:26:27
  TRACK 130 AUDIO
    TITLE "28:cjc024_3260"
    INDEX 01 02:27:28
  TRACK 131 AUDIO
    TITLE "0:"
    INDEX 01 02:28:43
  TRACK 132 AUDIO
    TITLE "29:cjc024_3261"
    INDEX 01 02:29:08
  TRACK 133 AUDIO
    TITLE "0:"
    INDEX 01 02:30:38
  TRACK 134 AUDIO
    TITLE "30:cjc024_3262"
    INDEX 01 02:31:03
  TRACK 135 AUDIO
    TITLE "0:"
    INDEX 01 02:32:71
  TRACK 136 AUDIO
    TITLE "31:cjc024_3263"
    INDEX 01 02:33:21
  TRACK 137 AUDIO
    TITLE "0:"
    INDEX 01 02:35:16
  TRACK 138 AUDIO
    TITLE "28:cjc024_3264"
    INDEX 01 02:36:15
  TRACK 139 AUDIO
    TITLE "0:"
    INDEX 01 02:37:17
  TRACK 140 AUDIO
    TITLE "29:cjc024_3265"
    INDEX 01 02:37:56
  TRACK 141 AUDIO
    TITLE "0:"
    INDEX 01 02:39:37
  TRACK 142 AUDIO
    TITLE "30:cjc024_3266"
    INDEX 01 02:40:00
  TRACK 143 AUDIO
    TITLE "0:"
    INDEX 01 02:42:24
  TRACK 144 AUDIO
    TITLE "31:cjc024_3267"
    INDEX 01 02:42:47
  TRACK 145 AUDIO
    TITLE "0:"
    INDEX 01 02:44:70
  TRACK 146 AUDIO
    TITLE "28:cjc024_3268"
    INDEX 01 02:45:71
  TRACK 147 AUDIO
    TITLE "0:"
    INDEX 01 02:47:02
  TRACK 148 AUDIO
    TITLE "29:cjc024_3269"
    INDEX 01 02:47:41
  TRACK 149 AUDIO
    TITLE "0:"
    INDEX 01 02:49:73
  TRACK 150 AUDIO
    TITLE "30:cjc024_3270"
    INDEX 01 02:50:37
  TRACK 151 AUDIO
    TITLE "0:"
    INDEX 01 02:52:22
  TRACK 152 AUDIO
    TITLE "31:cjc024_3271"
    INDEX 01 02:52:48
  TRACK 153 AUDIO
    TITLE "0:"
    INDEX 01 02:54:35
  TRACK 154 AUDIO
    TITLE "28:cjc024_3272"
    INDEX 01 02:55:38
  TRACK 155 AUDIO
    TITLE "0:"
    INDEX 01 02:56:48
  TRACK 156 AUDIO
    TITLE "29:cjc024_3273"
    INDEX 01 02:57:10
  TRACK 157 AUDIO
    TITLE "0:"
    INDEX 01 02:59:18
  TRACK 158 AUDIO
    TITLE "30:cjc024_3274"
    INDEX 01 02:59:62
  TRACK 159 AUDIO
    TITLE "0:"
    INDEX 01 03:01:55
  TRACK 160 AUDIO
    TITLE "31:cjc024_3275"
    INDEX 01 03:02:09
  TRACK 161 AUDIO
    TITLE "0:"
    INDEX 01 03:04:02
  TRACK 162 AUDIO
    TITLE "28:cjc024_3276"
    INDEX 01 03:04:74
  TRACK 163 AUDIO
    TITLE "0:"
    INDEX 01 03:06:28
  TRACK 164 AUDIO
    TITLE "29:cjc024_3277"
    INDEX 01 03:06:66
  TRACK 165 AUDIO
    TITLE "0:"
    INDEX 01 03:08:62
  TRACK 166 AUDIO
    TITLE "30:cjc024_3278"
    INDEX 01 03:09:31
  TRACK 167 AUDIO
    TITLE "0:"
    INDEX 01 03:11:31
  TRACK 168 AUDIO
    TITLE "31:cjc024_3279"
    INDEX 01 03:12:00
  TRACK 169 AUDIO
    TITLE "0:"
    INDEX 01 03:14:00
  TRACK 170 AUDIO
    TITLE "28:cjc024_3280"
    INDEX 01 03:15:17
  TRACK 171 AUDIO
    TITLE "0:"
    INDEX 01 03:16:23
  TRACK 172 AUDIO
    TITLE "29:cjc024_3281"
    INDEX 01 03:16:58
  TRACK 173 AUDIO
    TITLE "0:"
    INDEX 01 03:18:45
  TRACK 174 AUDIO
    TITLE "30:cjc024_3282"
    INDEX 01 03:19:07
  TRACK 175 AUDIO
    TITLE "0:"
    INDEX 01 03:20:70
  TRACK 176 AUDIO
    TITLE "31:cjc024_3283"
    INDEX 01 03:21:16
  TRACK 177 AUDIO
    TITLE "0:"
    INDEX 01 03:22:74
  TRACK 178 AUDIO
    TITLE "28:cjc024_3284"
    INDEX 01 03:23:72
  TRACK 179 AUDIO
    TITLE "0:"
    INDEX 01 03:24:73
  TRACK 180 AUDIO
    TITLE "29:cjc024_3285"
    INDEX 01 03:25:37
  TRACK 181 AUDIO
    TITLE "0:"
    INDEX 01 03:27:36
  TRACK 182 AUDIO
    TITLE "30:cjc024_3286"
    INDEX 01 03:27:74
  TRACK 183 AUDIO
    TITLE "0:"
    INDEX 01 03:29:72
  TRACK 184 AUDIO
    TITLE "31:cjc024_3287"
    INDEX 01 03:30:23
  TRACK 185 AUDIO
    TITLE "0:"
    INDEX 01 03:32:24
  TRACK 186 AUDIO
    TITLE "28:cjc024_3288"
    INDEX 01 03:33:29
  TRACK 187 AUDIO
    TITLE "0:"
    INDEX 01 03:34:38
  TRACK 188 AUDIO
    TITLE "29:cjc024_3289"
    INDEX 01 03:35:03
  TRACK 189 AUDIO
    TITLE "0:"
    INDEX 01 03:37:66
  TRACK 190 AUDIO
    TITLE "30:cjc024_3290"
    INDEX 01 03:38:28
  TRACK 191 AUDIO
    TITLE "0:"
    INDEX 01 03:41:01
  TRACK 192 AUDIO
    TITLE "31:cjc024_3291"
    INDEX 01 03:41:25
  TRACK 193 AUDIO
    TITLE "0:"
    INDEX 01 03:43:65
  TRACK 194 AUDIO
    TITLE "28:cjc024_3292"
    INDEX 01 03:44:72
  TRACK 195 AUDIO
    TITLE "0:"
    INDEX 01 03:46:00
  TRACK 196 AUDIO
    TITLE "29:cjc024_3293"
    INDEX 01 03:46:45
  TRACK 197 AUDIO
    TITLE "0:"
    INDEX 01 03:48:58
  TRACK 198 AUDIO
    TITLE "30:cjc024_3294"
    INDEX 01 03:49:20
  TRACK 199 AUDIO
    TITLE "0:"
    INDEX 01 03:51:29
  TRACK 200 AUDIO
    TITLE "31:cjc024_3295"
    INDEX 01 03:51:52
  TRACK 201 AUDIO
    TITLE "0:"
    INDEX 01 03:53:61
  TRACK 202 AUDIO
    TITLE "28:cjc024_3296"
    INDEX 01 03:54:70
  TRACK 203 AUDIO
    TITLE "0:"
    INDEX 01 03:56:11
  TRACK 204 AUDIO
    TITLE "29:cjc024_3297"
    INDEX 01 03:56:46
  TRACK 205 AUDIO
    TITLE "0:"
    INDEX 01 03:58:60
  TRACK 206 AUDIO
    TITLE "30:cjc024_3298"
    INDEX 01 03:59:25
  TRACK 207 AUDIO
    TITLE "0:"
    INDEX 01 04:01:31
  TRACK 208 AUDIO
    TITLE "31:cjc024_3299"
    INDEX 01 04:01:55
  TRACK 209 AUDIO
    TITLE "0:"
    INDEX 01 04:03:63
  TRACK 210 AUDIO
    TITLE "28:cjc024_3300"
    INDEX 01 04:04:63
  TRACK 211 AUDIO
    TITLE "0:"
    INDEX 01 04:06:09
  TRACK 212 AUDIO
    TITLE "29:cjc024_3301"
    INDEX 01 04:06:46
  TRACK 213 AUDIO
    TITLE "0:"
    INDEX 01 04:09:58
  TRACK 214 AUDIO
    TITLE "30:cjc024_3302"
    INDEX 01 04:10:30
  TRACK 215 AUDIO
    TITLE "0:"
    INDEX 01 04:12:66
  TRACK 216 AUDIO
    TITLE "31:cjc024_3303"
    INDEX 01 04:13:17
  TRACK 217 AUDIO
    TITLE "0:"
    INDEX 01 04:15:55
  TRACK 218 AUDIO
    TITLE "28:cjc024_3304"
    INDEX 01 04:16:54
  TRACK 219 AUDIO
    TITLE "0:"
    INDEX 01 04:17:56
  TRACK 220 AUDIO
    TITLE "29:cjc024_3305"
    INDEX 01 04:18:18
  TRACK 221 AUDIO
    TITLE "0:"
    INDEX 01 04:20:70
  TRACK 222 AUDIO
    TITLE "30:cjc024_3306"
    INDEX 01 04:21:32
  TRACK 223 AUDIO
    TITLE "0:"
    INDEX 01 04:24:23
  TRACK 224 AUDIO
    TITLE "31:cjc024_3307"
    INDEX 01 04:24:48
  TRACK 225 AUDIO
    TITLE "0:"
    INDEX 01 04:27:39
  TRACK 226 AUDIO
    TITLE "28:cjc024_3308"
    INDEX 01 04:28:38
  TRACK 227 AUDIO
    TITLE "0:"
    INDEX 01 04:29:57
  TRACK 228 AUDIO
    TITLE "29:cjc024_3309"
    INDEX 01 04:30:23
  TRACK 229 AUDIO
    TITLE "0:"
    INDEX 01 04:32:06
  TRACK 230 AUDIO
    TITLE "30:cjc024_3310"
    INDEX 01 04:32:46
  TRACK 231 AUDIO
    TITLE "0:"
    INDEX 01 04:34:27
  TRACK 232 AUDIO
    TITLE "31:cjc024_3311"
    INDEX 01 04:34:52
  TRACK 233 AUDIO
    TITLE "0:"
    INDEX 01 04:36:37
  TRACK 234 AUDIO
    TITLE "28:cjc024_3312"
    INDEX 01 04:37:37
  TRACK 235 AUDIO
    TITLE "0:"
    INDEX 01 04:38:54
  TRACK 236 AUDIO
    TITLE "29:cjc024_3313"
    INDEX 01 04:39:16
  TRACK 237 AUDIO
    TITLE "0:"
    INDEX 01 04:41:46
  TRACK 238 AUDIO
    TITLE "30:cjc024_3314"
    INDEX 01 04:42:13
  TRACK 239 AUDIO
    TITLE "0:"
    INDEX 01 04:44:59
  TRACK 240 AUDIO
    TITLE "31:cjc024_3315"
    INDEX 01 04:45:05
  TRACK 241 AUDIO
    TITLE "0:"
    INDEX 01 04:47:47
  TRACK 242 AUDIO
    TITLE "28:cjc024_3316"
    INDEX 01 04:48:50
  TRACK 243 AUDIO
    TITLE "0:"
    INDEX 01 04:49:64
  TRACK 244 AUDIO
    TITLE "29:cjc024_3317"
    INDEX 01 04:50:26
  TRACK 245 AUDIO
    TITLE "0:"
    INDEX 01 04:52:03
  TRACK 246 AUDIO
    TITLE "30:cjc024_3318"
    INDEX 01 04:52:40
  TRACK 247 AUDIO
    TITLE "0:"
    INDEX 01 04:54:29
  TRACK 248 AUDIO
    TITLE "31:cjc024_3319"
    INDEX 01 04:54:55
  TRACK 249 AUDIO
    TITLE "0:"
    INDEX 01 04:56:44
  TRACK 250 AUDIO
    TITLE "28:cjc024_3320"
    INDEX 01 04:57:45
  TRACK 251 AUDIO
    TITLE "0:"
    INDEX 01 04:58:55
  TRACK 252 AUDIO
    TITLE "29:cjc024_3321"
    INDEX 01 04:59:19
  TRACK 253 AUDIO
    TITLE "0:"
    INDEX 01 05:03:01
  TRACK 254 AUDIO
    TITLE "30:cjc024_3322"
    INDEX 01 05:03:40
  TRACK 255 AUDIO
    TITLE "0:"
    INDEX 01 05:06:21
  TRACK 256 AUDIO
    TITLE "31:cjc024_3323"
    INDEX 01 05:06:44
  TRACK 257 AUDIO
    TITLE "0:"
    INDEX 01 05:09:25
  TRACK 258 AUDIO
    TITLE "28:cjc024_3324"
    INDEX 01 05:10:27
  TRACK 259 AUDIO
    TITLE "0:"
    INDEX 01 05:11:36
  TRACK 260 AUDIO
    TITLE "29:cjc024_3325"
    INDEX 01 05:12:00
  TRACK 261 AUDIO
    TITLE "0:"
    INDEX 01 05:15:73
  TRACK 262 AUDIO
    TITLE "30:cjc024_3326"
    INDEX 01 05:16:37
  TRACK 263 AUDIO
    TITLE "0:"
    INDEX 01 05:19:26
  TRACK 264 AUDIO
    TITLE "31:cjc024_3327"
    INDEX 01 05:19:51
  TRACK 265 AUDIO
    TITLE "0:"
    INDEX 01 05:22:40
  TRACK 266 AUDIO
    TITLE "28:cjc024_3328"
    INDEX 01 05:23:37
  TRACK 267 AUDIO
    TITLE "0:"
    INDEX 01 05:24:70
  TRACK 268 AUDIO
    TITLE "29:cjc024_3329"
    INDEX 01 05:25:32
  TRACK 269 AUDIO
    TITLE "0:"
    INDEX 01 05:27:21
  TRACK 270 AUDIO
    TITLE "30:cjc024_3330"
    INDEX 01 05:27:58
  TRACK 271 AUDIO
    TITLE "0:"
    INDEX 01 05:29:49
  TRACK 272 AUDIO
    TITLE "31:cjc024_3331"
    INDEX 01 05:30:04
  TRACK 273 AUDIO
    TITLE "0:"
    INDEX 01 05:31:70
  TRACK 274 AUDIO
    TITLE "28:cjc024_3332"
    INDEX 01 05:32:73
  TRACK 275 AUDIO
    TITLE "0:"
    INDEX 01 05:34:09
  TRACK 276 AUDIO
    TITLE "29:cjc024_3333"
    INDEX 01 05:34:49
  TRACK 277 AUDIO
    TITLE "0:"
    INDEX 01 05:36:14
  TRACK 278 AUDIO
    TITLE "30:cjc024_3334"
    INDEX 01 05:36:53
  TRACK 279 AUDIO
    TITLE "0:"
    INDEX 01 05:38:23
  TRACK 280 AUDIO
    TITLE "31:cjc024_3335"
    INDEX 01 05:38:48
  TRACK 281 AUDIO
    TITLE "0:"
    INDEX 01 05:40:18
  TRACK 282 AUDIO
    TITLE "28:cjc024_3336"
    INDEX 01 05:41:17
  TRACK 283 AUDIO
    TITLE "0:"
    INDEX 01 05:42:36
  TRACK 284 AUDIO
    TITLE "29:cjc024_3337"
    INDEX 01 05:43:01
  TRACK 285 AUDIO
    TITLE "0:"
    INDEX 01 05:45:19
  TRACK 286 AUDIO
    TITLE "30:cjc024_3338"
    INDEX 01 05:45:54
  TRACK 287 AUDIO
    TITLE "0:"
    INDEX 01 05:47:26
  TRACK 288 AUDIO
    TITLE "31:cjc024_3339"
    INDEX 01 05:47:53
  TRACK 289 AUDIO
    TITLE "0:"
    INDEX 01 05:49:27
  TRACK 290 AUDIO
    TITLE "28:cjc024_3340"
    INDEX 01 05:50:26
  TRACK 291 AUDIO
    TITLE "0:"
    INDEX 01 05:51:31
  TRACK 292 AUDIO
    TITLE "29:cjc024_3341"
    INDEX 01 05:51:71
  TRACK 293 AUDIO
    TITLE "0:"
    INDEX 01 05:53:71
  TRACK 294 AUDIO
    TITLE "30:cjc024_3342"
    INDEX 01 05:54:34
  TRACK 295 AUDIO
    TITLE "0:"
    INDEX 01 05:56:07
  TRACK 296 AUDIO
    TITLE "31:cjc024_3343"
    INDEX 01 05:56:33
  TRACK 297 AUDIO
    TITLE "0:"
    INDEX 01 05:58:04
  TRACK 298 AUDIO
    TITLE "28:cjc024_3344"
    INDEX 01 05:59:03
  TRACK 299 AUDIO
    TITLE "0:"
    INDEX 01 06:00:24
  TRACK 300 AUDIO
    TITLE "29:cjc024_3345"
    INDEX 01 06:00:66
  TRACK 301 AUDIO
    TITLE "0:"
    INDEX 01 06:04:44
  TRACK 302 AUDIO
    TITLE "30:cjc024_3346"
    INDEX 01 06:05:06
  TRACK 303 AUDIO
    TITLE "0:"
    INDEX 01 06:08:18
  TRACK 304 AUDIO
    TITLE "31:cjc024_3347"
    INDEX 01 06:08:46
  TRACK 305 AUDIO
    TITLE "0:"
    INDEX 01 06:11:58
  TRACK 306 AUDIO
    TITLE "28:cjc024_3348"
    INDEX 01 06:12:55
  TRACK 307 AUDIO
    TITLE "0:"
    INDEX 01 06:13:68
  TRACK 308 AUDIO
    TITLE "29:cjc024_3349"
    INDEX 01 06:14:30
  TRACK 309 AUDIO
    TITLE "0:"
    INDEX 01 06:16:72
  TRACK 310 AUDIO
    TITLE "30:cjc024_3350"
    INDEX 01 06:17:37
  TRACK 311 AUDIO
    TITLE "0:"
    INDEX 01 06:19:34
  TRACK 312 AUDIO
    TITLE "31:cjc024_3351"
    INDEX 01 06:19:57
  TRACK 313 AUDIO
    TITLE "0:"
    INDEX 01 06:21:56
  TRACK 314 AUDIO
    TITLE "28:cjc024_3352"
    INDEX 01 06:22:55
  TRACK 315 AUDIO
    TITLE "0:"
    INDEX 01 06:24:01
  TRACK 316 AUDIO
    TITLE "29:cjc024_3353"
    INDEX 01 06:24:43
  TRACK 317 AUDIO
    TITLE "0:"
    INDEX 01 06:26:55
  TRACK 318 AUDIO
    TITLE "30:cjc024_3354"
    INDEX 01 06:27:17
  TRACK 319 AUDIO
    TITLE "0:"
    INDEX 01 06:29:16
  TRACK 320 AUDIO
    TITLE "31:cjc024_3355"
    INDEX 01 06:29:40
  TRACK 321 AUDIO
    TITLE "0:"
    INDEX 01 06:31:41
  TRACK 322 AUDIO
    TITLE "28:cjc024_3356"
    INDEX 01 06:32:38
  TRACK 323 AUDIO
    TITLE "0:"
    INDEX 01 06:33:40
  TRACK 324 AUDIO
    TITLE "29:cjc024_3357"
    INDEX 01 06:34:14
  TRACK 325 AUDIO
    TITLE "0:"
    INDEX 01 06:36:61
  TRACK 326 AUDIO
    TITLE "30:cjc024_3358"
    INDEX 01 06:37:20
  TRACK 327 AUDIO
    TITLE "0:"
    INDEX 01 06:39:52
  TRACK 328 AUDIO
    TITLE "31:cjc024_3359"
    INDEX 01 06:40:00
  TRACK 329 AUDIO
    TITLE "0:"
    INDEX 01 06:42:35
  TRACK 330 AUDIO
    TITLE "28:cjc024_3360"
    INDEX 01 06:43:32
  TRACK 331 AUDIO
    TITLE "0:"
    INDEX 01 06:44:39
  TRACK 332 AUDIO
    TITLE "29:cjc024_3361"
    INDEX 01 06:45:02
  TRACK 333 AUDIO
    TITLE "0:"
    INDEX 01 06:48:20
  TRACK 334 AUDIO
    TITLE "30:cjc024_3362"
    INDEX 01 06:48:59
  TRACK 335 AUDIO
    TITLE "0:"
    INDEX 01 06:51:57
  TRACK 336 AUDIO
    TITLE "31:cjc024_3363"
    INDEX 01 06:52:10
  TRACK 337 AUDIO
    TITLE "0:"
    INDEX 01 06:55:06
  TRACK 338 AUDIO
    TITLE "28:cjc024_3364"
    INDEX 01 06:56:11
  TRACK 339 AUDIO
    TITLE "0:"
    INDEX 01 06:57:38
  TRACK 340 AUDIO
    TITLE "29:cjc024_3365"
    INDEX 01 06:57:73
  TRACK 341 AUDIO
    TITLE "0:"
    INDEX 01 07:00:27
  TRACK 342 AUDIO
    TITLE "30:cjc024_3366"
    INDEX 01 07:00:64
  TRACK 343 AUDIO
    TITLE "0:"
    INDEX 01 07:03:05
  TRACK 344 AUDIO
    TITLE "31:cjc024_3367"
    INDEX 01 07:03:31
  TRACK 345 AUDIO
    TITLE "0:"
    INDEX 01 07:05:47
  TRACK 346 AUDIO
    TITLE "28:cjc024_3368"
    INDEX 01 07:06:47
  TRACK 347 AUDIO
    TITLE "0:"
    INDEX 01 07:07:66
  TRACK 348 AUDIO
    TITLE "29:cjc024_3369"
    INDEX 01 07:08:28
  TRACK 349 AUDIO
    TITLE "0:"
    INDEX 01 07:12:22
  TRACK 350 AUDIO
    TITLE "30:cjc024_3370"
    INDEX 01 07:12:65
  TRACK 351 AUDIO
    TITLE "0:"
    INDEX 01 07:16:10
  TRACK 352 AUDIO
    TITLE "31:cjc024_3371"
    INDEX 01 07:16:36
  TRACK 353 AUDIO
    TITLE "0:"
    INDEX 01 07:19:51
  TRACK 354 AUDIO
    TITLE "28:cjc024_3372"
    INDEX 01 07:20:53
  TRACK 355 AUDIO
    TITLE "0:"
    INDEX 01 07:21:72
  TRACK 356 AUDIO
    TITLE "29:cjc024_3373"
    INDEX 01 07:22:32
  TRACK 357 AUDIO
    TITLE "0:"
    INDEX 01 07:24:68
  TRACK 358 AUDIO
    TITLE "30:cjc024_3374"
    INDEX 01 07:25:33
  TRACK 359 AUDIO
    TITLE "0:"
    INDEX 01 07:27:69
  TRACK 360 AUDIO
    TITLE "31:cjc024_3375"
    INDEX 01 07:28:15
  TRACK 361 AUDIO
    TITLE "0:"
    INDEX 01 07:30:51
  TRACK 362 AUDIO
    TITLE "28:cjc024_3376"
    INDEX 01 07:31:53
  TRACK 363 AUDIO
    TITLE "0:"
    INDEX 01 07:32:66
  TRACK 364 AUDIO
    TITLE "29:cjc024_3377"
    INDEX 01 07:33:28
  TRACK 365 AUDIO
    TITLE "0:"
    INDEX 01 07:35:39
  TRACK 366 AUDIO
    TITLE "30:cjc024_3378"
    INDEX 01 07:36:01
  TRACK 367 AUDIO
    TITLE "0:"
    INDEX 01 07:38:10
  TRACK 368 AUDIO
    TITLE "31:cjc024_3379"
    INDEX 01 07:38:33
  TRACK 369 AUDIO
    TITLE "0:"
    INDEX 01 07:40:40
  TRACK 370 AUDIO
    TITLE "28:cjc024_3380"
    INDEX 01 07:41:39
  TRACK 371 AUDIO
    TITLE "0:"
    INDEX 01 07:42:49
  TRACK 372 AUDIO
    TITLE "29:cjc024_3381"
    INDEX 01 07:43:11
  TRACK 373 AUDIO
    TITLE "0:"
    INDEX 01 07:45:61
  TRACK 374 AUDIO
    TITLE "30:cjc024_3382"
    INDEX 01 07:46:21
  TRACK 375 AUDIO
    TITLE "0:"
    INDEX 01 07:48:45
  TRACK 376 AUDIO
    TITLE "31:cjc024_3383"
    INDEX 01 07:48:73
  TRACK 377 AUDIO
    TITLE "0:"
    INDEX 01 07:51:20
  TRACK 378 AUDIO
    TITLE "28:cjc024_3384"
    INDEX 01 07:52:24
  TRACK 379 AUDIO
    TITLE "0:"
    INDEX 01 07:53:46
  TRACK 380 AUDIO
    TITLE "29:cjc024_3385"
    INDEX 01 07:54:18
  TRACK 381 AUDIO
    TITLE "0:"
    INDEX 01 07:56:49
  TRACK 382 AUDIO
    TITLE "30:cjc024_3386"
    INDEX 01 07:57:07
  TRACK 383 AUDIO
    TITLE "0:"
    INDEX 01 07:59:49
  TRACK 384 AUDIO
    TITLE "31:cjc024_3387"
    INDEX 01 08:00:00
  TRACK 385 AUDIO
    TITLE "0:"
    INDEX 01 08:02:42
  TRACK 386 AUDIO
    TITLE "28:cjc024_3388"
    INDEX 01 08:03:37
  TRACK 387 AUDIO
    TITLE "0:"
    INDEX 01 08:04:35
  TRACK 388 AUDIO
    TITLE "29:cjc024_3389"
    INDEX 01 08:05:01
  TRACK 389 AUDIO
    TITLE "0:"
    INDEX 01 08:08:01
  TRACK 390 AUDIO
    TITLE "30:cjc024_3390"
    INDEX 01 08:08:38
  TRACK 391 AUDIO
    TITLE "0:"
    INDEX 01 08:10:57
  TRACK 392 AUDIO
    TITLE "31:cjc024_3391"
    INDEX 01 08:11:05
  TRACK 393 AUDIO
    TITLE "0:"
    INDEX 01 08:13:24
  TRACK 394 AUDIO
    TITLE "28:cjc024_3392"
    INDEX 01 08:14:23
  TRACK 395 AUDIO
    TITLE "0:"
    INDEX 01 08:15:30
  TRACK 396 AUDIO
    TITLE "29:cjc024_3393"
    INDEX 01 08:15:72
  TRACK 397 AUDIO
    TITLE "0:"
    INDEX 01 08:17:29
  TRACK 398 AUDIO
    TITLE "30:cjc024_3394"
    INDEX 01 08:17:69
  TRACK 399 AUDIO
    TITLE "0:"
    INDEX 01 08:19:54
  TRACK 400 AUDIO
    TITLE "31:cjc024_3395"
    INDEX 01 08:20:02
  TRACK 401 AUDIO
    TITLE "0:"
    INDEX 01 08:21:62
  TRACK 402 AUDIO
    TITLE "28:cjc024_3396"
    INDEX 01 08:22:62
  TRACK 403 AUDIO
    TITLE "0:"
    INDEX 01 08:23:71
  TRACK 404 AUDIO
    TITLE "29:cjc024_3397"
    INDEX 01 08:24:33
  TRACK 405 AUDIO
    TITLE "0:"
    INDEX 01 08:25:60
  TRACK 406 AUDIO
    TITLE "30:cjc024_3398"
    INDEX 01 08:26:24
  TRACK 407 AUDIO
    TITLE "0:"
    INDEX 01 08:27:69
  TRACK 408 AUDIO
    TITLE "31:cjc024_3399"
    INDEX 01 08:28:21
  TRACK 409 AUDIO
    TITLE "0:"
    INDEX 01 08:29:64
  TRACK 410 AUDIO
    TITLE "28:cjc024_3400"
    INDEX 01 08:30:65
  TRACK 411 AUDIO
    TITLE "0:"
    INDEX 01 08:32:03
  TRACK 412 AUDIO
    TITLE "29:cjc024_3401"
    INDEX 01 08:32:47
  TRACK 413 AUDIO
    TITLE "0:"
    INDEX 01 08:35:41
  TRACK 414 AUDIO
    TITLE "30:cjc024_3402"
    INDEX 01 08:36:05
  TRACK 415 AUDIO
    TITLE "0:"
    INDEX 01 08:38:39
  TRACK 416 AUDIO
    TITLE "31:cjc024_3403"
    INDEX 01 08:38:69
  TRACK 417 AUDIO
    TITLE "0:"
    INDEX 01 08:41:24
  TRACK 418 AUDIO
    TITLE "28:cjc024_3404"
    INDEX 01 08:42:25
  TRACK 419 AUDIO
    TITLE "0:"
    INDEX 01 08:43:40
  TRACK 420 AUDIO
    TITLE "29:cjc024_3405"
    INDEX 01 08:44:05
  TRACK 421 AUDIO
    TITLE "0:"
    INDEX 01 08:45:73
  TRACK 422 AUDIO
    TITLE "30:cjc024_3406"
    INDEX 01 08:46:37
  TRACK 423 AUDIO
    TITLE "0:"
    INDEX 01 08:48:14
  TRACK 424 AUDIO
    TITLE "31:cjc024_3407"
    INDEX 01 08:48:40
  TRACK 425 AUDIO
    TITLE "0:"
    INDEX 01 08:50:15
  TRACK 426 AUDIO
    TITLE "28:cjc024_3408"
    INDEX 01 08:51:15
  TRACK 427 AUDIO
    TITLE "0:"
    INDEX 01 08:52:14
  TRACK 428 AUDIO
    TITLE "29:cjc024_3409"
    INDEX 01 08:52:51
  TRACK 429 AUDIO
    TITLE "0:"
    INDEX 01 08:54:36
  TRACK 430 AUDIO
    TITLE "30:cjc024_3410"
    INDEX 01 08:55:01
  TRACK 431 AUDIO
    TITLE "0:"
    INDEX 01 08:56:45
  TRACK 432 AUDIO
    TITLE "31:cjc024_3411"
    INDEX 01 08:56:72
  TRACK 433 AUDIO
    TITLE "0:"
    INDEX 01 08:58:46
  TRACK 434 AUDIO
    TITLE "28:cjc024_3412"
    INDEX 01 08:59:47
  TRACK 435 AUDIO
    TITLE "0:"
    INDEX 01 09:00:55
  TRACK 436 AUDIO
    TITLE "29:cjc024_3413"
    INDEX 01 09:01:15
  TRACK 437 AUDIO
    TITLE "0:"
    INDEX 01 09:04:50
  TRACK 438 AUDIO
    TITLE "30:cjc024_3414"
    INDEX 01 09:05:17
  TRACK 439 AUDIO
    TITLE "0:"
    INDEX 01 09:07:39
  TRACK 440 AUDIO
    TITLE "31:cjc024_3415"
    INDEX 01 09:07:63
  TRACK 441 AUDIO
    TITLE "0:"
    INDEX 01 09:10:12
  TRACK 442 AUDIO
    TITLE "28:cjc024_3416"
    INDEX 01 09:11:09
  TRACK 443 AUDIO
    TITLE "0:"
    INDEX 01 09:12:32
  TRACK 444 AUDIO
    TITLE "29:cjc024_3417"
    INDEX 01 09:13:00
  TRACK 445 AUDIO
    TITLE "0:"
    INDEX 01 09:15:15
  TRACK 446 AUDIO
    TITLE "30:cjc024_3418"
    INDEX 01 09:15:54
  TRACK 447 AUDIO
    TITLE "0:"
    INDEX 01 09:18:21
  TRACK 448 AUDIO
    TITLE "31:cjc024_3419"
    INDEX 01 09:18:49
  TRACK 449 AUDIO
    TITLE "0:"
    INDEX 01 09:21:16
  TRACK 450 AUDIO
    TITLE "28:cjc024_3420"
    INDEX 01 09:22:13
  TRACK 451 AUDIO
    TITLE "0:"
    INDEX 01 09:23:15
  TRACK 452 AUDIO
    TITLE "29:cjc024_3421"
    INDEX 01 09:23:56
  TRACK 453 AUDIO
    TITLE "0:"
    INDEX 01 09:25:53
  TRACK 454 AUDIO
    TITLE "30:cjc024_3422"
    INDEX 01 09:26:15
  TRACK 455 AUDIO
    TITLE "0:"
    INDEX 01 09:27:73
  TRACK 456 AUDIO
    TITLE "31:cjc024_3423"
    INDEX 01 09:28:24
  TRACK 457 AUDIO
    TITLE "0:"
    INDEX 01 09:30:09
  TRACK 458 AUDIO
    TITLE "28:cjc024_3424"
    INDEX 01 09:31:08
  TRACK 459 AUDIO
    TITLE "0:"
    INDEX 01 09:32:23
  TRACK 460 AUDIO
    TITLE "29:cjc024_3425"
    INDEX 01 09:32:60
  TRACK 461 AUDIO
    TITLE "0:"
    INDEX 01 09:34:54
  TRACK 462 AUDIO
    TITLE "30:cjc024_3426"
    INDEX 01 09:35:18
  TRACK 463 AUDIO
    TITLE "0:"
    INDEX 01 09:37:22
  TRACK 464 AUDIO
    TITLE "31:cjc024_3427"
    INDEX 01 09:37:48
  TRACK 465 AUDIO
    TITLE "0:"
    INDEX 01 09:39:57
  TRACK 466 AUDIO
    TITLE "28:cjc024_3428"
    INDEX 01 09:40:56
  TRACK 467 AUDIO
    TITLE "0:"
    INDEX 01 09:41:56
  TRACK 468 AUDIO
    TITLE "29:cjc024_3429"
    INDEX 01 09:42:20
  TRACK 469 AUDIO
    TITLE "0:"
    INDEX 01 09:43:68
  TRACK 470 AUDIO
    TITLE "30:cjc024_3430"
    INDEX 01 09:44:34
  TRACK 471 AUDIO
    TITLE "0:"
    INDEX 01 09:45:71
  TRACK 472 AUDIO
    TITLE "31:cjc024_3431"
    INDEX 01 09:46:23
  TRACK 473 AUDIO
    TITLE "0:"
    INDEX 01 09:47:62
  TRACK 474 AUDIO
    TITLE "28:cjc024_3432"
    INDEX 01 09:48:63
  TRACK 475 AUDIO
    TITLE "0:"
    INDEX 01 09:50:00
  TRACK 476 AUDIO
    TITLE "29:cjc024_3433"
    INDEX 01 09:50:39
  TRACK 477 AUDIO
    TITLE "0:"
    INDEX 01 09:52:24
  TRACK 478 AUDIO
    TITLE "30:cjc024_3434"
    INDEX 01 09:52:63
  TRACK 479 AUDIO
    TITLE "0:"
    INDEX 01 09:54:31
  TRACK 480 AUDIO
    TITLE "31:cjc024_3435"
    INDEX 01 09:54:54
  TRACK 481 AUDIO
    TITLE "0:"
    INDEX 01 09:56:22
  TRACK 482 AUDIO
    TITLE "28:cjc024_3436"
    INDEX 01 09:57:23
  TRACK 483 AUDIO
    TITLE "0:"
    INDEX 01 09:58:23
  TRACK 484 AUDIO
    TITLE "29:cjc024_3437"
    INDEX 01 09:58:62
  TRACK 485 AUDIO
    TITLE "0:"
    INDEX 01 10:00:51
  TRACK 486 AUDIO
    TITLE "30:cjc024_3438"
    INDEX 01 10:01:13
  TRACK 487 AUDIO
    TITLE "0:"
    INDEX 01 10:03:04
  TRACK 488 AUDIO
    TITLE "31:cjc024_3439"
    INDEX 01 10:03:30
  TRACK 489 AUDIO
    TITLE "0:"
    INDEX 01 10:05:21
  TRACK 490 AUDIO
    TITLE "28:cjc024_3440"
    INDEX 01 10:06:18
  TRACK 491 AUDIO
    TITLE "0:"
    INDEX 01 10:07:35
  TRACK 492 AUDIO
    TITLE "29:cjc024_3441"
    INDEX 01 10:08:00
  TRACK 493 AUDIO
    TITLE "0:"
    INDEX 01 10:09:64
  TRACK 494 AUDIO
    TITLE "30:cjc024_3442"
    INDEX 01 10:10:28
  TRACK 495 AUDIO
    TITLE "0:"
    INDEX 01 10:12:17
  TRACK 496 AUDIO
    TITLE "31:cjc024_3443"
    INDEX 01 10:12:40
  TRACK 497 AUDIO
    TITLE "0:"
    INDEX 01 10:14:31
  TRACK 498 AUDIO
    TITLE "28:cjc024_3444"
    INDEX 01 10:15:35
  TRACK 499 AUDIO
    TITLE "0:"
    INDEX 01 10:16:44
  TRACK 500 AUDIO
    TITLE "29:cjc024_3445"
    INDEX 01 10:17:08
  TRACK 501 AUDIO
    TITLE "0:"
    INDEX 01 10:18:37
  TRACK 502 AUDIO
    TITLE "30:cjc024_3446"
    INDEX 01 10:18:72
  TRACK 503 AUDIO
    TITLE "0:"
    INDEX 01 10:20:56
  TRACK 504 AUDIO
    TITLE "31:cjc024_3447"
    INDEX 01 10:21:10
  TRACK 505 AUDIO
    TITLE "0:"
    INDEX 01 10:22:66
  TRACK 506 AUDIO
    TITLE "28:cjc024_3448"
    INDEX 01 10:23:74
  TRACK 507 AUDIO
    TITLE "0:"
    INDEX 01 10:25:21
  TRACK 508 AUDIO
    TITLE "29:cjc024_3449"
    INDEX 01 10:25:59
  TRACK 509 AUDIO
    TITLE "0:"
    INDEX 01 10:28:04
  TRACK 510 AUDIO
    TITLE "30:cjc024_3450"
    INDEX 01 10:28:39
  TRACK 511 AUDIO
    TITLE "0:"
    INDEX 01 10:30:50
  TRACK 512 AUDIO
    TITLE "31:cjc024_3451"
    INDEX 01 10:31:03
  TRACK 513 AUDIO
    TITLE "0:"
    INDEX 01 10:33:11
  TRACK 514 AUDIO
    TITLE "28:cjc024_3452"
    INDEX 01 10:34:13
  TRACK 515 AUDIO
    TITLE "0:"
    INDEX 01 10:35:18
  TRACK 516 AUDIO
    TITLE "29:cjc024_3453"
    INDEX 01 10:35:59
  TRACK 517 AUDIO
    TITLE "0:"
    INDEX 01 10:37:58
  TRACK 518 AUDIO
    TITLE "30:cjc024_3454"
    INDEX 01 10:38:20
  TRACK 519 AUDIO
    TITLE "0:"
    INDEX 01 10:40:00
  TRACK 520 AUDIO
    TITLE "31:cjc024_3455"
    INDEX 01 10:40:23
  TRACK 521 AUDIO
    TITLE "0:"
    INDEX 01 10:42:00
  TRACK 522 AUDIO
    TITLE "28:cjc024_3456"
    INDEX 01 10:43:02
  TRACK 523 AUDIO
    TITLE "0:"
    INDEX 01 10:44:21
  TRACK 524 AUDIO
    TITLE "29:cjc024_3457"
    INDEX 01 10:44:56
  TRACK 525 AUDIO
    TITLE "0:"
    INDEX 01 10:46:55
  TRACK 526 AUDIO
    TITLE "30:cjc024_3458"
    INDEX 01 10:47:19
  TRACK 527 AUDIO
    TITLE "0:"
    INDEX 01 10:49:14
  TRACK 528 AUDIO
    TITLE "31:cjc024_3459"
    INDEX 01 10:49:40
  TRACK 529 AUDIO
    TITLE "0:"
    INDEX 01 10:51:37
  TRACK 530 AUDIO
    TITLE "28:cjc024_3460"
    INDEX 01 10:52:32
  TRACK 531 AUDIO
    TITLE "0:"
    INDEX 01 10:53:43
  TRACK 532 AUDIO
    TITLE "29:cjc024_3461"
    INDEX 01 10:54:15
  TRACK 533 AUDIO
    TITLE "0:"
    INDEX 01 10:55:74
  TRACK 534 AUDIO
    TITLE "30:cjc024_3462"
    INDEX 01 10:56:34
  TRACK 535 AUDIO
    TITLE "0:"
    INDEX 01 10:58:05
  TRACK 536 AUDIO
    TITLE "31:cjc024_3463"
    INDEX 01 10:58:33
  TRACK 537 AUDIO
    TITLE "0:"
    INDEX 01 11:00:02
  TRACK 538 AUDIO
    TITLE "28:cjc024_3464"
    INDEX 01 11:01:06
  TRACK 539 AUDIO
    TITLE "0:"
    INDEX 01 11:02:21
  TRACK 540 AUDIO
    TITLE "29:cjc024_3465"
    INDEX 01 11:02:56
  TRACK 541 AUDIO
    TITLE "0:"
    INDEX 01 11:06:13
  TRACK 542 AUDIO
    TITLE "30:cjc024_3466"
    INDEX 01 11:06:50
  TRACK 543 AUDIO
    TITLE "0:"
    INDEX 01 11:09:33
  TRACK 544 AUDIO
    TITLE "31:cjc024_3467"
    INDEX 01 11:09:56
  TRACK 545 AUDIO
    TITLE "0:"
    INDEX 01 11:12:39
  TRACK 546 AUDIO
    TITLE "28:cjc024_3468"
    INDEX 01 11:13:38
  TRACK 547 AUDIO
    TITLE "0:"
    INDEX 01 11:14:61
  TRACK 548 AUDIO
    TITLE "29:cjc024_3469"
    INDEX 01 11:15:23
  TRACK 549 AUDIO
    TITLE "0:"
    INDEX 01 11:17:44
  TRACK 550 AUDIO
    TITLE "30:cjc024_3470"
    INDEX 01 11:18:06
  TRACK 551 AUDIO
    TITLE "0:"
    INDEX 01 11:20:42
  TRACK 552 AUDIO
    TITLE "31:cjc024_3471"
    INDEX 01 11:20:72
  TRACK 553 AUDIO
    TITLE "0:"
    INDEX 01 11:23:35
  TRACK 554 AUDIO
    TITLE "28:cjc024_3472"
    INDEX 01 11:24:36
  TRACK 555 AUDIO
    TITLE "0:"
    INDEX 01 11:25:41
  TRACK 556 AUDIO
    TITLE "29:cjc024_3473"
    INDEX 01 11:26:06
  TRACK 557 AUDIO
    TITLE "0:"
    INDEX 01 11:27:21
  TRACK 558 AUDIO
    TITLE "30:cjc024_3474"
    INDEX 01 11:27:62
  TRACK 559 AUDIO
    TITLE "0:"
    INDEX 01 11:29:31
  TRACK 560 AUDIO
    TITLE "31:cjc024_3475"
    INDEX 01 11:29:57
  TRACK 561 AUDIO
    TITLE "0:"
    INDEX 01 11:31:26
  TRACK 562 AUDIO
    TITLE "28:cjc024_3476"
    INDEX 01 11:32:28
  TRACK 563 AUDIO
    TITLE "0:"
    INDEX 01 11:33:45
  TRACK 564 AUDIO
    TITLE "29:cjc024_3477"
    INDEX 01 11:34:11
  TRACK 565 AUDIO
    TITLE "0:"
    INDEX 01 11:38:18
  TRACK 566 AUDIO
    TITLE "30:cjc024_3478"
    INDEX 01 11:38:58
  TRACK 567 AUDIO
    TITLE "0:"
    INDEX 01 11:42:05
  TRACK 568 AUDIO
    TITLE "31:cjc024_3479"
    INDEX 01 11:42:30
  TRACK 569 AUDIO
    TITLE "0:"
    INDEX 01 11:45:58
  TRACK 570 AUDIO
    TITLE "28:cjc024_3480"
    INDEX 01 11:46:55
  TRACK 571 AUDIO
    TITLE "0:"
    INDEX 01 11:48:05
  TRACK 572 AUDIO
    TITLE "29:cjc024_3481"
    INDEX 01 11:48:42
  TRACK 573 AUDIO
    TITLE "0:"
    INDEX 01 11:52:23
  TRACK 574 AUDIO
    TITLE "30:cjc024_3482"
    INDEX 01 11:52:70
  TRACK 575 AUDIO
    TITLE "0:"
    INDEX 01 11:55:70
  TRACK 576 AUDIO
    TITLE "31:cjc024_3483"
    INDEX 01 11:56:18
  TRACK 577 AUDIO
    TITLE "0:"
    INDEX 01 11:59:19
  TRACK 578 AUDIO
    TITLE "28:cjc024_3484"
    INDEX 01 12:00:20
  TRACK 579 AUDIO
    TITLE "0:"
    INDEX 01 12:01:27
  TRACK 580 AUDIO
    TITLE "29:cjc024_3485"
    INDEX 01 12:01:69
  TRACK 581 AUDIO
    TITLE "0:"
    INDEX 01 12:04:28
  TRACK 582 AUDIO
    TITLE "30:cjc024_3486"
    INDEX 01 12:04:65
  TRACK 583 AUDIO
    TITLE "0:"
    INDEX 01 12:06:62
  TRACK 584 AUDIO
    TITLE "31:cjc024_3487"
    INDEX 01 12:07:12
  TRACK 585 AUDIO
    TITLE "0:"
    INDEX 01 12:09:09
  TRACK 586 AUDIO
    TITLE "28:cjc024_3488"
    INDEX 01 12:10:11
  TRACK 587 AUDIO
    TITLE "0:"
    INDEX 01 12:11:24
  TRACK 588 AUDIO
    TITLE "29:cjc024_3489"
    INDEX 01 12:11:61
  TRACK 589 AUDIO
    TITLE "0:"
    INDEX 01 12:14:22
  TRACK 590 AUDIO
    TITLE "30:cjc024_3490"
    INDEX 01 12:14:67
  TRACK 591 AUDIO
    TITLE "0:"
    INDEX 01 12:17:34
  TRACK 592 AUDIO
    TITLE "31:cjc024_3491"
    INDEX 01 12:17:68
  TRACK 593 AUDIO
    TITLE "0:"
    INDEX 01 12:20:33
  TRACK 594 AUDIO
    TITLE "28:cjc024_3492"
    INDEX 01 12:21:30
  TRACK 595 AUDIO
    TITLE "0:"
    INDEX 01 12:22:59
  TRACK 596 AUDIO
    TITLE "29:cjc024_3493"
    INDEX 01 12:23:19
  TRACK 597 AUDIO
    TITLE "0:"
    INDEX 01 12:25:18
  TRACK 598 AUDIO
    TITLE "30:cjc024_3494"
    INDEX 01 12:25:55
  TRACK 599 AUDIO
    TITLE "0:"
    INDEX 01 12:27:48
  TRACK 600 AUDIO
    TITLE "31:cjc024_3495"
    INDEX 01 12:28:03
  TRACK 601 AUDIO
    TITLE "0:"
    INDEX 01 12:29:71
  TRACK 602 AUDIO
    TITLE "28:cjc024_3496"
    INDEX 01 12:30:70
  TRACK 603 AUDIO
    TITLE "0:"
    INDEX 01 12:32:12
  TRACK 604 AUDIO
    TITLE "29:cjc024_3497"
    INDEX 01 12:32:48
  TRACK 605 AUDIO
    TITLE "0:"
    INDEX 01 12:34:25
  TRACK 606 AUDIO
    TITLE "30:cjc024_3498"
    INDEX 01 12:34:60
  TRACK 607 AUDIO
    TITLE "0:"
    INDEX 01 12:36:43
  TRACK 608 AUDIO
    TITLE "31:cjc024_3499"
    INDEX 01 12:36:69
  TRACK 609 AUDIO
    TITLE "0:"
    INDEX 01 12:38:50
  TRACK 610 AUDIO
    TITLE "28:cjc024_3500"
    INDEX 01 12:39:50
  TRACK 611 AUDIO
    TITLE "0:"
    INDEX 01 12:40:61
  TRACK 612 AUDIO
    TITLE "29:cjc024_3501"
    INDEX 01 12:41:25
  TRACK 613 AUDIO
    TITLE "0:"
    INDEX 01 12:43:26
  TRACK 614 AUDIO
    TITLE "30:cjc024_3502"
    INDEX 01 12:43:63
  TRACK 615 AUDIO
    TITLE "0:"
    INDEX 01 12:45:23
  TRACK 616 AUDIO
    TITLE "31:cjc024_3503"
    INDEX 01 12:45:48
  TRACK 617 AUDIO
    TITLE "0:"
    INDEX 01 12:47:10
  TRACK 618 AUDIO
    TITLE "28:cjc024_3504"
    INDEX 01 12:48:07
  TRACK 619 AUDIO
    TITLE "0:"
    INDEX 01 12:49:17
  TRACK 620 AUDIO
    TITLE "29:cjc024_3505"
    INDEX 01 12:49:56
  TRACK 621 AUDIO
    TITLE "0:"
    INDEX 01 12:52:35
  TRACK 622 AUDIO
    TITLE "30:cjc024_3506"
    INDEX 01 12:53:01
  TRACK 623 AUDIO
    TITLE "0:"
    INDEX 01 12:54:71
  TRACK 624 AUDIO
    TITLE "31:cjc024_3507"
    INDEX 01 12:55:19
  TRACK 625 AUDIO
    TITLE "0:"
    INDEX 01 12:57:12
  TRACK 626 AUDIO
    TITLE "28:cjc024_3508"
    INDEX 01 12:58:16
  TRACK 627 AUDIO
    TITLE "0:"
    INDEX 01 12:59:50
  TRACK 628 AUDIO
    TITLE "29:cjc024_3509"
    INDEX 01 13:00:12
  TRACK 629 AUDIO
    TITLE "0:"
    INDEX 01 13:01:65
  TRACK 630 AUDIO
    TITLE "30:cjc024_3510"
    INDEX 01 13:02:29
  TRACK 631 AUDIO
    TITLE "0:"
    INDEX 01 13:04:10
  TRACK 632 AUDIO
    TITLE "31:cjc024_3511"
    INDEX 01 13:04:38
  TRACK 633 AUDIO
    TITLE "0:"
    INDEX 01 13:06:17
  TRACK 634 AUDIO
    TITLE "28:cjc024_3512"
    INDEX 01 13:07:18
  TRACK 635 AUDIO
    TITLE "0:"
    INDEX 01 13:08:28
  TRACK 636 AUDIO
    TITLE "29:cjc024_3513"
    INDEX 01 13:08:65
  TRACK 637 AUDIO
    TITLE "0:"
    INDEX 01 13:11:71
  TRACK 638 AUDIO
    TITLE "30:cjc024_3514"
    INDEX 01 13:12:33
  TRACK 639 AUDIO
    TITLE "0:"
    INDEX 01 13:15:10
  TRACK 640 AUDIO
    TITLE "31:cjc024_3515"
    INDEX 01 13:15:38
  TRACK 641 AUDIO
    TITLE "0:"
    INDEX 01 13:18:16
  TRACK 642 AUDIO
    TITLE "28:cjc024_3516"
    INDEX 01 13:19:24
  TRACK 643 AUDIO
    TITLE "0:"
    INDEX 01 13:20:31
  TRACK 644 AUDIO
    TITLE "29:cjc024_3517"
    INDEX 01 13:20:66
  TRACK 645 AUDIO
    TITLE "0:"
    INDEX 01 13:22:42
  TRACK 646 AUDIO
    TITLE "30:cjc024_3518"
    INDEX 01 13:23:02
  TRACK 647 AUDIO
    TITLE "0:"
    INDEX 01 13:24:52
  TRACK 648 AUDIO
    TITLE "31:cjc024_3519"
    INDEX 01 13:25:09
  TRACK 649 AUDIO
    TITLE "0:"
    INDEX 01 13:26:61
  TRACK 650 AUDIO
    TITLE "28:cjc024_3520"
    INDEX 01 13:27:68
  TRACK 651 AUDIO
    TITLE "0:"
    INDEX 01 13:29:16
  TRACK 652 AUDIO
    TITLE "29:cjc024_3521"
    INDEX 01 13:29:51
  TRACK 653 AUDIO
    TITLE "0:"
    INDEX 01 13:31:54
  TRACK 654 AUDIO
    TITLE "30:cjc024_3522"
    INDEX 01 13:32:12
  TRACK 655 AUDIO
    TITLE "0:"
    INDEX 01 13:34:04
  TRACK 656 AUDIO
    TITLE "31:cjc024_3523"
    INDEX 01 13:34:29
  TRACK 657 AUDIO
    TITLE "0:"
    INDEX 01 13:36:16
  TRACK 658 AUDIO
    TITLE "28:cjc024_3524"
    INDEX 01 13:37:20
  TRACK 659 AUDIO
    TITLE "0:"
    INDEX 01 13:38:23
  TRACK 660 AUDIO
    TITLE "29:cjc024_3525"
    INDEX 01 13:38:68
  TRACK 661 AUDIO
    TITLE "0:"
    INDEX 01 13:40:45
  TRACK 662 AUDIO
    TITLE "30:cjc024_3526"
    INDEX 01 13:41:08
  TRACK 663 AUDIO
    TITLE "0:"
    INDEX 01 13:43:01
  TRACK 664 AUDIO
    TITLE "31:cjc024_3527"
    INDEX 01 13:43:26
  TRACK 665 AUDIO
    TITLE "0:"
    INDEX 01 13:45:17
  TRACK 666 AUDIO
    TITLE "28:cjc024_3528"
    INDEX 01 13:46:22
  TRACK 667 AUDIO
    TITLE "0:"
    INDEX 01 13:47:36
  TRACK 668 AUDIO
    TITLE "29:cjc024_3529"
    INDEX 01 13:47:71
  TRACK 669 AUDIO
    TITLE "0:"
    INDEX 01 13:49:31
  TRACK 670 AUDIO
    TITLE "30:cjc024_3530"
    INDEX 01 13:49:70
  TRACK 671 AUDIO
    TITLE "0:"
    INDEX 01 13:51:55
  TRACK 672 AUDIO
    TITLE "31:cjc024_3531"
    INDEX 01 13:52:05
  TRACK 673 AUDIO
    TITLE "0:"
    INDEX 01 13:53:66
  TRACK 674 AUDIO
    TITLE "28:cjc024_3532"
    INDEX 01 13:54:67
  TRACK 675 AUDIO
    TITLE "0:"
    INDEX 01 13:55:72
  TRACK 676 AUDIO
    TITLE "29:cjc024_3533"
    INDEX 01 13:56:38
  TRACK 677 AUDIO
    TITLE "0:"
    INDEX 01 13:58:35
  TRACK 678 AUDIO
    TITLE "30:cjc024_3534"
    INDEX 01 13:59:00
  TRACK 679 AUDIO
    TITLE "0:"
    INDEX 01 14:01:14
  TRACK 680 AUDIO
    TITLE "31:cjc024_3535"
    INDEX 01 14:01:42
  TRACK 681 AUDIO
    TITLE "0:"
    INDEX 01 14:03:58
  TRACK 682 AUDIO
    TITLE "28:cjc024_3536"
    INDEX 01 14:04:58
  TRACK 683 AUDIO
    TITLE "0:"
    INDEX 01 14:05:63
  TRACK 684 AUDIO
    TITLE "29:cjc024_3537"
    INDEX 01 14:06:25
  TRACK 685 AUDIO
    TITLE "0:"
    INDEX 01 14:08:69
  TRACK 686 AUDIO
    TITLE "30:cjc024_3538"
    INDEX 01 14:09:29
  TRACK 687 AUDIO
    TITLE "0:"
    INDEX 01 14:12:00
  TRACK 688 AUDIO
    TITLE "31:cjc024_3539"
    INDEX 01 14:12:28
  TRACK 689 AUDIO
    TITLE "0:"
    INDEX 01 14:14:72
  TRACK 690 AUDIO
    TITLE "28:cjc024_3540"
    INDEX 01 14:15:71
  TRACK 691 AUDIO
    TITLE "0:"
    INDEX 01 14:17:27
  TRACK 692 AUDIO
    TITLE "29:cjc024_3541"
    INDEX 01 14:17:60
  TRACK 693 AUDIO
    TITLE "0:"
    INDEX 01 14:21:07
  TRACK 694 AUDIO
    TITLE "30:cjc024_3542"
    INDEX 01 14:21:46
  TRACK 695 AUDIO
    TITLE "0:"
    INDEX 01 14:24:25
  TRACK 696 AUDIO
    TITLE "31:cjc024_3543"
    INDEX 01 14:24:48
  TRACK 697 AUDIO
    TITLE "0:"
    INDEX 01 14:27:25
  TRACK 698 AUDIO
    TITLE "28:cjc024_3544"
    INDEX 01 14:28:29
  TRACK 699 AUDIO
    TITLE "0:"
    INDEX 01 14:29:38
  TRACK 700 AUDIO
    TITLE "29:cjc024_3545"
    INDEX 01 14:29:73
  TRACK 701 AUDIO
    TITLE "0:"
    INDEX 01 14:32:60
  TRACK 702 AUDIO
    TITLE "30:cjc024_3546"
    INDEX 01 14:33:22
  TRACK 703 AUDIO
    TITLE "0:"
    INDEX 01 14:35:44
  TRACK 704 AUDIO
    TITLE "31:cjc024_3547"
    INDEX 01 14:35:70
  TRACK 705 AUDIO
    TITLE "0:"
    INDEX 01 14:38:17
  TRACK 706 AUDIO
    TITLE "28:cjc024_3548"
    INDEX 01 14:39:17
  TRACK 707 AUDIO
    TITLE "0:"
    INDEX 01 14:40:34
  TRACK 708 AUDIO
    TITLE "29:cjc024_3549"
    INDEX 01 14:40:73
  TRACK 709 AUDIO
    TITLE "0:"
    INDEX 01 14:44:14
  TRACK 710 AUDIO
    TITLE "30:cjc024_3550"
    INDEX 01 14:44:51
  TRACK 711 AUDIO
    TITLE "0:"
    INDEX 01 14:47:40
  TRACK 712 AUDIO
    TITLE "31:cjc024_3551"
    INDEX 01 14:47:65
  TRACK 713 AUDIO
    TITLE "0:"
    INDEX 01 14:50:54
  TRACK 714 AUDIO
    TITLE "28:cjc024_3552"
    INDEX 01 14:51:53
  TRACK 715 AUDIO
    TITLE "0:"
    INDEX 01 14:52:62
  TRACK 716 AUDIO
    TITLE "29:cjc024_3553"
    INDEX 01 14:53:27
  TRACK 717 AUDIO
    TITLE "0:"
    INDEX 01 14:55:69
  TRACK 718 AUDIO
    TITLE "30:cjc024_3554"
    INDEX 01 14:56:31
  TRACK 719 AUDIO
    TITLE "0:"
    INDEX 01 14:58:04
  TRACK 720 AUDIO
    TITLE "31:cjc024_3555"
    INDEX 01 14:58:32
  TRACK 721 AUDIO
    TITLE "0:"
    INDEX 01 15:00:03
  TRACK 722 AUDIO
    TITLE "28:cjc024_3556"
    INDEX 01 15:01:07
  TRACK 723 AUDIO
    TITLE "0:"
    INDEX 01 15:02:20
  TRACK 724 AUDIO
    TITLE "29:cjc024_3557"
    INDEX 01 15:02:57
  TRACK 725 AUDIO
    TITLE "0:"
    INDEX 01 15:05:08
  TRACK 726 AUDIO
    TITLE "30:cjc024_3558"
    INDEX 01 15:05:45
  TRACK 727 AUDIO
    TITLE "0:"
    INDEX 01 15:07:29
  TRACK 728 AUDIO
    TITLE "31:cjc024_3559"
    INDEX 01 15:07:50
  TRACK 729 AUDIO
    TITLE "0:"
    INDEX 01 15:09:32
  TRACK 730 AUDIO
    TITLE "28:cjc024_3560"
    INDEX 01 15:10:37
  TRACK 731 AUDIO
    TITLE "0:"
    INDEX 01 15:11:50
  TRACK 732 AUDIO
    TITLE "29:cjc024_3561"
    INDEX 01 15:12:10
  TRACK 733 AUDIO
    TITLE "0:"
    INDEX 01 15:14:41
  TRACK 734 AUDIO
    TITLE "30:cjc024_3562"
    INDEX 01 15:15:09
  TRACK 735 AUDIO
    TITLE "0:"
    INDEX 01 15:17:27
  TRACK 736 AUDIO
    TITLE "31:cjc024_3563"
    INDEX 01 15:17:57
  TRACK 737 AUDIO
    TITLE "0:"
    INDEX 01 15:20:04
  TRACK 738 AUDIO
    TITLE "28:cjc024_3564"
    INDEX 01 15:21:03
  TRACK 739 AUDIO
    TITLE "0:"
    INDEX 01 15:22:17
  TRACK 740 AUDIO
    TITLE "29:cjc024_3565"
    INDEX 01 15:22:56
  TRACK 741 AUDIO
    TITLE "0:"
    INDEX 01 15:25:13
  TRACK 742 AUDIO
    TITLE "30:cjc024_3566"
    INDEX 01 15:25:50
  TRACK 743 AUDIO
    TITLE "0:"
    INDEX 01 15:28:33
  TRACK 744 AUDIO
    TITLE "31:cjc024_3567"
    INDEX 01 15:28:56
  TRACK 745 AUDIO
    TITLE "0:"
    INDEX 01 15:31:39
  TRACK 746 AUDIO
    TITLE "28:cjc024_3568"
    INDEX 01 15:32:36
  TRACK 747 AUDIO
    TITLE "0:"
    INDEX 01 15:33:28
  TRACK 748 AUDIO
    TITLE "29:cjc024_3569"
    INDEX 01 15:33:67
  TRACK 749 AUDIO
    TITLE "0:"
    INDEX 01 15:36:48
  TRACK 750 AUDIO
    TITLE "30:cjc024_3570"
    INDEX 01 15:37:12
  TRACK 751 AUDIO
    TITLE "0:"
    INDEX 01 15:39:42
  TRACK 752 AUDIO
    TITLE "31:cjc024_3571"
    INDEX 01 15:39:70
  TRACK 753 AUDIO
    TITLE "0:"
    INDEX 01 15:42:25
  TRACK 754 AUDIO
    TITLE "28:cjc024_3572"
    INDEX 01 15:43:27
  TRACK 755 AUDIO
    TITLE "0:"
    INDEX 01 15:44:42
  TRACK 756 AUDIO
    TITLE "29:cjc024_3573"
    INDEX 01 15:45:04
  TRACK 757 AUDIO
    TITLE "0:"
    INDEX 01 15:47:38
  TRACK 758 AUDIO
    TITLE "30:cjc024_3574"
    INDEX 01 15:48:00
  TRACK 759 AUDIO
    TITLE "0:"
    INDEX 01 15:49:58
  TRACK 760 AUDIO
    TITLE "31:cjc024_3575"
    INDEX 01 15:50:09
  TRACK 761 AUDIO
    TITLE "0:"
    INDEX 01 15:51:67
  TRACK 762 AUDIO
    TITLE "28:cjc024_3576"
    INDEX 01 15:52:69
  TRACK 763 AUDIO
    TITLE "0:"
    INDEX 01 15:54:09
  TRACK 764 AUDIO
    TITLE "29:cjc024_3577"
    INDEX 01 15:54:46
  TRACK 765 AUDIO
    TITLE "0:"
    INDEX 01 15:56:21
  TRACK 766 AUDIO
    TITLE "30:cjc024_3578"
    INDEX 01 15:56:59
  TRACK 767 AUDIO
    TITLE "0:"
    INDEX 01 15:58:34
  TRACK 768 AUDIO
    TITLE "31:cjc024_3579"
    INDEX 01 15:58:57
  TRACK 769 AUDIO
    TITLE "0:"
    INDEX 01 16:00:35
  TRACK 770 AUDIO
    TITLE "28:cjc024_3580"
    INDEX 01 16:01:34
  TRACK 771 AUDIO
    TITLE "0:"
    INDEX 01 16:02:40
  TRACK 772 AUDIO
    TITLE "29:cjc024_3581"
    INDEX 01 16:03:02
  TRACK 773 AUDIO
    TITLE "0:"
    INDEX 01 16:04:58
  TRACK 774 AUDIO
    TITLE "30:cjc024_3582"
    INDEX 01 16:05:18
  TRACK 775 AUDIO
    TITLE "0:"
    INDEX 01 16:06:59
  TRACK 776 AUDIO
    TITLE "31:cjc024_3583"
    INDEX 01 16:07:07
  TRACK 777 AUDIO
    TITLE "0:"
    INDEX 01 16:08:50
  TRACK 778 AUDIO
    TITLE "28:cjc024_3584"
    INDEX 01 16:09:47
  TRACK 779 AUDIO
    TITLE "0:"
    INDEX 01 16:10:53
  TRACK 780 AUDIO
    TITLE "29:cjc024_3585"
    INDEX 01 16:11:15
  TRACK 781 AUDIO
    TITLE "0:"
    INDEX 01 16:12:56
  TRACK 782 AUDIO
    TITLE "30:cjc024_3586"
    INDEX 01 16:13:18
  TRACK 783 AUDIO
    TITLE "0:"
    INDEX 01 16:14:70
  TRACK 784 AUDIO
    TITLE "31:cjc024_3587"
    INDEX 01 16:15:23
  TRACK 785 AUDIO
    TITLE "0:"
    INDEX 01 16:17:04
  TRACK 786 AUDIO
    TITLE "28:cjc024_3588"
    INDEX 01 16:17:74
  TRACK 787 AUDIO
    TITLE "0:"
    INDEX 01 16:19:26
  TRACK 788 AUDIO
    TITLE "29:cjc024_3589"
    INDEX 01 16:19:63
  TRACK 789 AUDIO
    TITLE "0:"
    INDEX 01 16:23:10
  TRACK 790 AUDIO
    TITLE "30:cjc024_3590"
    INDEX 01 16:23:50
  TRACK 791 AUDIO
    TITLE "0:"
    INDEX 01 16:26:05
  TRACK 792 AUDIO
    TITLE "31:cjc024_3591"
    INDEX 01 16:26:26
  TRACK 793 AUDIO
    TITLE "0:"
    INDEX 01 16:28:57
  TRACK 794 AUDIO
    TITLE "28:cjc024_3592"
    INDEX 01 16:29:56
  TRACK 795 AUDIO
    TITLE "0:"
    INDEX 01 16:30:67
  TRACK 796 AUDIO
    TITLE "29:cjc024_3593"
    INDEX 01 16:31:29
  TRACK 797 AUDIO
    TITLE "0:"
    INDEX 01 16:34:16
  TRACK 798 AUDIO
    TITLE "30:cjc024_3594"
    INDEX 01 16:34:51
  TRACK 799 AUDIO
    TITLE "0:"
    INDEX 01 16:36:74
  TRACK 800 AUDIO
    TITLE "31:cjc024_3595"
    INDEX 01 16:37:24
  TRACK 801 AUDIO
    TITLE "0:"
    INDEX 01 16:39:47
